<svg viewBox="0 0 142 34" id="svg10830464932"><path d="M 78.002 28.321 C 76.956 28.321 75.911 28.097 74.94 27.798 C 74.791 27.798 74.791 27.649 74.865 27.5 C 76.583 25.483 77.852 23.019 78.45 20.405 C 79.271 16.671 78.749 12.788 76.956 9.428 C 75.164 6.067 72.177 3.454 68.593 2.035 C 65.008 0.616 61.05 0.541 57.391 1.736 C 53.732 2.931 50.67 5.47 48.654 8.681 C 46.638 11.967 45.891 15.85 46.563 19.584 C 47.16 23.318 49.177 26.753 52.089 29.292 C 54.927 31.681 58.511 33.026 62.17 33.1 C 62.469 33.1 62.768 32.951 62.917 32.727 C 63.066 32.503 63.141 32.279 63.141 32.055 L 63.141 29.292 C 63.141 28.769 62.693 28.321 62.17 28.246 C 59.631 28.172 57.167 27.201 55.151 25.558 C 53.06 23.84 51.716 21.376 51.267 18.762 C 50.819 16.149 51.342 13.386 52.761 11.071 C 54.18 8.756 56.346 7.038 58.885 6.142 C 61.423 5.321 64.261 5.321 66.726 6.366 C 69.265 7.337 71.281 9.204 72.55 11.593 C 73.82 13.983 74.193 16.671 73.596 19.285 C 73.148 21.376 72.028 23.318 70.534 24.886 C 70.459 24.96 70.31 24.96 70.235 24.886 C 69.19 23.84 68.368 22.571 67.771 21.227 C 67.248 19.957 66.95 18.613 66.875 17.269 C 66.875 16.671 66.427 16.298 65.829 16.298 L 63.066 16.298 C 62.842 16.298 62.544 16.373 62.394 16.522 C 62.17 16.746 62.021 17.045 62.021 17.343 C 62.096 19.36 62.469 21.227 63.216 23.094 C 64.037 25.035 65.232 26.827 66.726 28.321 C 68.219 29.814 70.011 31.009 72.028 31.831 C 73.895 32.578 75.836 33.026 77.778 33.026 C 78.076 33.026 78.375 32.876 78.525 32.652 C 78.674 32.428 78.749 32.204 78.749 31.98 L 78.749 29.217 C 78.973 28.844 78.525 28.396 78.002 28.321 Z" fill="currentColor"></path><path d="M 18.783 20.629 C 18.41 19.808 17.812 19.136 17.065 18.613 C 16.319 18.09 15.497 17.642 14.601 17.343 C 13.63 16.97 12.659 16.671 11.689 16.447 C 10.942 16.298 10.27 16.074 9.598 15.924 C 9 15.7 8.403 15.476 7.88 15.252 C 7.656 15.178 7.432 15.028 7.208 14.879 C 7.059 14.804 6.909 14.655 6.76 14.506 C 6.685 14.431 6.611 14.281 6.611 14.207 C 6.536 14.132 6.536 13.983 6.536 13.908 C 6.536 13.609 6.685 13.311 6.909 13.087 C 7.133 12.788 7.507 12.564 7.805 12.415 C 8.254 12.265 8.702 12.116 9.15 12.041 C 9.672 11.967 10.12 11.967 10.643 11.967 C 11.39 11.967 12.211 12.191 12.883 12.564 C 13.406 12.788 14.452 13.684 14.974 14.207 C 15.198 14.356 15.497 14.431 15.721 14.281 L 18.634 12.265 C 18.932 12.041 19.007 11.668 18.783 11.444 C 18.036 10.398 17.065 9.577 15.87 8.979 C 14.377 8.307 12.809 7.859 11.166 7.785 C 10.046 7.71 8.926 7.785 7.805 7.934 C 6.76 8.083 5.789 8.457 4.818 8.905 C 3.922 9.353 3.101 9.95 2.503 10.772 C 1.906 11.593 1.533 12.564 1.458 13.535 C 1.383 14.431 1.533 15.402 1.981 16.298 C 2.429 17.045 3.101 17.717 3.848 18.165 C 4.669 18.688 5.565 19.136 6.536 19.434 C 7.507 19.733 8.552 20.032 9.672 20.33 C 10.27 20.48 10.793 20.629 11.465 20.853 C 11.987 21.002 12.435 21.227 12.883 21.451 C 13.257 21.674 13.481 21.899 13.705 22.197 C 13.854 22.496 13.929 22.795 13.929 23.093 L 13.929 23.168 C 13.929 23.541 13.78 23.84 13.556 24.139 C 13.257 24.438 12.883 24.662 12.51 24.811 C 12.062 25.035 11.539 25.11 11.017 25.184 C 10.494 25.259 9.896 25.259 9.374 25.184 C 8.254 25.11 7.208 24.811 6.312 24.288 C 5.64 23.84 5.042 23.317 4.52 22.795 C 4.296 22.571 3.997 22.496 3.698 22.72 L 0.636 24.811 C 0.338 25.035 0.263 25.408 0.487 25.707 C 1.383 26.752 2.503 27.649 3.848 28.321 C 5.49 28.993 7.283 29.441 9.075 29.516 C 9.523 29.516 9.896 29.59 10.345 29.59 C 11.091 29.59 11.838 29.516 12.585 29.441 C 13.705 29.292 14.75 28.993 15.796 28.545 C 16.767 28.097 17.588 27.425 18.26 26.603 C 18.932 25.707 19.306 24.587 19.38 23.467 C 19.38 22.496 19.231 21.525 18.783 20.629 Z" fill="currentColor"></path><path d="M 130.051 24.961 C 126.541 24.961 123.629 22.124 123.629 18.614 C 123.629 15.104 126.541 12.266 130.051 12.266 C 133.561 12.266 136.473 15.104 136.473 18.614 C 136.473 22.124 133.561 24.961 130.051 24.961 Z M 141.103 18.614 C 141.103 12.565 136.175 7.636 130.051 7.636 C 123.928 7.636 118.999 12.565 118.999 18.614 C 118.999 24.663 123.928 29.591 130.051 29.591 C 133.71 29.591 135.577 27.948 136.249 27.127 C 136.324 26.977 136.548 27.052 136.548 27.201 L 136.548 27.575 L 136.548 28.546 C 136.548 29.143 136.996 29.591 137.593 29.591 L 140.132 29.591 C 140.73 29.591 141.178 29.143 141.178 28.546 L 141.178 18.838 C 141.178 18.838 141.178 18.838 141.178 18.763 C 141.103 18.763 141.103 18.688 141.103 18.614 Z" fill="currentColor"></path><path d="M 117.954 7.935 C 117.73 7.711 117.506 7.636 117.207 7.636 C 115.863 7.711 114.593 7.935 113.398 8.458 C 112.054 8.98 110.859 9.802 109.814 10.847 C 108.768 11.893 107.947 13.088 107.424 14.432 C 106.901 15.627 106.677 16.896 106.603 18.24 C 106.603 18.24 106.603 18.24 106.603 18.315 L 106.603 28.546 C 106.603 29.143 107.051 29.591 107.648 29.591 L 110.262 29.591 C 110.859 29.591 111.307 29.143 111.307 28.546 L 111.307 18.39 L 111.307 18.315 C 111.307 17.568 111.531 16.896 111.755 16.224 C 112.054 15.477 112.577 14.73 113.174 14.133 C 113.772 13.536 114.444 13.088 115.265 12.714 C 115.937 12.415 116.609 12.266 117.356 12.266 C 117.879 12.266 118.327 11.818 118.327 11.221 L 118.327 8.682 C 118.252 8.458 118.103 8.159 117.954 7.935 Z" fill="currentColor"></path><path d="M 102.346 7.486 L 99.807 7.486 C 99.21 7.486 98.761 7.934 98.761 8.531 L 98.761 18.613 L 98.761 18.687 L 98.761 19.285 C 98.761 19.359 98.761 19.359 98.761 19.434 C 98.612 20.853 98.015 22.122 97.044 23.093 C 96.521 23.616 95.849 24.064 95.102 24.363 C 94.356 24.662 93.609 24.811 92.862 24.811 C 92.115 24.811 91.294 24.662 90.622 24.363 C 89.875 24.064 89.278 23.616 88.68 23.093 C 87.709 22.122 87.112 20.853 86.963 19.434 C 86.963 19.359 86.963 19.359 86.963 19.285 L 86.963 18.687 L 86.963 18.613 L 86.963 8.531 C 86.963 7.934 86.514 7.486 85.917 7.486 L 83.378 7.486 C 82.781 7.486 82.333 7.934 82.333 8.531 L 82.333 18.314 L 82.333 18.613 L 82.333 18.911 C 82.333 20.33 82.631 21.674 83.154 22.944 C 83.677 24.213 84.424 25.408 85.469 26.379 C 86.44 27.35 87.635 28.097 88.904 28.694 C 90.174 29.217 91.518 29.515 92.937 29.515 C 94.356 29.515 95.7 29.217 96.969 28.694 C 98.239 28.171 99.433 27.424 100.404 26.379 C 102.122 24.662 103.167 22.421 103.466 19.808 C 103.466 19.733 103.466 19.733 103.466 19.658 L 103.466 18.613 L 103.466 18.314 L 103.466 8.531 C 103.391 7.934 102.943 7.486 102.346 7.486 Z" fill="currentColor"></path><path d="M 40.662 11.369 C 42.38 13.386 43.351 15.925 43.351 18.538 L 43.351 19.733 C 43.351 20.331 42.903 20.779 42.305 20.779 L 26.549 20.779 C 26.399 20.779 26.25 20.928 26.324 21.077 C 26.399 21.227 26.474 21.376 26.549 21.526 C 27.221 22.944 28.49 24.139 29.984 24.737 C 31.477 25.334 33.12 25.409 34.614 24.886 C 35.584 24.587 36.406 23.99 37.153 23.318 C 37.526 22.944 38.049 22.87 38.422 23.094 L 40.438 24.139 C 41.036 24.438 41.11 25.185 40.737 25.633 C 39.468 27.126 37.825 28.246 35.958 28.844 C 33.419 29.665 30.73 29.59 28.266 28.62 C 25.802 27.574 23.86 25.707 22.665 23.318 C 21.471 20.928 21.246 18.24 21.919 15.626 C 22.591 13.087 24.159 10.847 26.399 9.353 C 28.565 7.86 31.253 7.262 33.867 7.636 C 36.555 8.084 38.945 9.428 40.662 11.369 Z M 33.419 11.892 C 31.776 11.668 30.133 12.041 28.789 13.012 C 27.594 13.834 26.698 15.029 26.175 16.373 C 26.1 16.447 26.25 16.597 26.324 16.597 L 38.646 16.597 C 38.795 16.597 38.87 16.447 38.795 16.373 C 38.497 15.551 38.049 14.805 37.526 14.207 C 36.481 12.938 34.987 12.116 33.419 11.892 Z" fill="currentColor"></path></svg>