<svg viewBox="0 0 155 36" id="svg11760474273"><path d="M 85.571 9.293 C 87.711 9.293 89.452 10.003 90.793 11.423 C 92.135 12.843 92.805 15.205 92.805 18.509 L 92.805 29.467 L 87.35 29.467 L 87.35 18.315 C 87.35 15.295 86.203 13.785 83.907 13.785 C 82.721 13.785 81.766 14.211 81.044 15.063 C 80.322 15.889 79.961 17.05 79.961 18.547 L 79.961 29.467 L 74.506 29.467 L 74.506 18.315 C 74.506 15.295 73.345 13.785 71.024 13.785 C 69.837 13.785 68.883 14.224 68.161 15.101 C 67.464 15.953 67.116 17.115 67.116 18.586 L 67.116 29.467 L 61.661 29.467 L 61.661 14.94 L 58.544 14.94 L 58.544 9.897 L 66.42 9.526 L 66.923 12.004 C 67.593 11.152 68.393 10.494 69.321 10.029 C 70.25 9.564 71.41 9.319 72.803 9.293 C 75.641 9.293 77.614 10.416 78.723 12.662 C 79.445 11.578 80.386 10.752 81.547 10.184 C 82.733 9.59 84.075 9.293 85.571 9.293 Z" fill="currentColor"></path><path d="M 104.782 29.66 C 102.692 29.66 100.848 29.247 99.249 28.421 C 97.676 27.569 96.451 26.369 95.574 24.82 C 94.723 23.271 94.297 21.49 94.297 19.477 C 94.297 17.463 94.723 15.682 95.574 14.133 C 96.451 12.585 97.676 11.397 99.249 10.571 C 100.848 9.719 102.692 9.293 104.782 9.293 C 106.871 9.293 108.702 9.719 110.275 10.571 C 111.875 11.397 113.1 12.585 113.951 14.133 C 114.828 15.682 115.266 17.463 115.266 19.477 C 115.266 21.516 114.828 23.31 113.951 24.859 C 113.1 26.382 111.875 27.569 110.275 28.421 C 108.702 29.247 106.871 29.66 104.782 29.66 Z M 104.782 25.207 C 106.303 25.207 107.503 24.678 108.38 23.62 C 109.282 22.561 109.734 21.18 109.734 19.477 C 109.734 17.773 109.282 16.392 108.38 15.334 C 107.503 14.275 106.303 13.746 104.782 13.746 C 103.286 13.746 102.086 14.275 101.184 15.334 C 100.307 16.392 99.868 17.773 99.868 19.477 C 99.868 21.18 100.307 22.561 101.184 23.62 C 102.086 24.678 103.286 25.207 104.782 25.207 Z" fill="currentColor"></path><path d="M 121.406 22.807 C 121.484 23.684 121.909 24.394 122.683 24.936 C 123.457 25.478 124.45 25.75 125.662 25.75 C 126.823 25.75 127.738 25.569 128.409 25.207 C 129.08 24.82 129.415 24.278 129.415 23.581 C 129.415 23.065 129.26 22.678 128.951 22.419 C 128.641 22.161 128.203 21.981 127.635 21.877 C 127.068 21.748 126.139 21.606 124.85 21.451 C 123.096 21.219 121.638 20.922 120.478 20.561 C 119.317 20.2 118.389 19.632 117.692 18.857 C 116.996 18.083 116.648 17.05 116.648 15.76 C 116.648 14.469 116.996 13.333 117.692 12.352 C 118.414 11.345 119.42 10.571 120.71 10.029 C 122 9.487 123.483 9.216 125.159 9.216 C 127.867 9.242 130.047 9.822 131.697 10.958 C 133.374 12.094 134.277 13.669 134.406 15.682 L 129.221 15.682 C 129.144 14.934 128.744 14.327 128.022 13.862 C 127.326 13.372 126.423 13.127 125.314 13.127 C 124.282 13.127 123.444 13.32 122.799 13.707 C 122.18 14.095 121.871 14.611 121.871 15.256 C 121.871 15.721 122.038 16.069 122.373 16.302 C 122.709 16.534 123.147 16.702 123.689 16.805 C 124.231 16.908 125.133 17.024 126.397 17.154 C 129.08 17.463 131.13 18.044 132.549 18.896 C 133.993 19.722 134.715 21.155 134.715 23.194 C 134.715 24.485 134.328 25.62 133.555 26.601 C 132.807 27.582 131.749 28.344 130.382 28.886 C 129.041 29.402 127.48 29.66 125.701 29.66 C 122.941 29.66 120.697 29.054 118.969 27.84 C 117.241 26.601 116.325 24.924 116.222 22.807 Z" fill="currentColor"></path><path d="M 140.761 22.807 C 140.839 23.684 141.264 24.394 142.038 24.936 C 142.812 25.478 143.805 25.75 145.017 25.75 C 146.178 25.75 147.093 25.569 147.764 25.207 C 148.434 24.82 148.77 24.278 148.77 23.581 C 148.77 23.065 148.615 22.678 148.305 22.419 C 147.996 22.161 147.558 21.981 146.99 21.877 C 146.423 21.748 145.494 21.606 144.204 21.451 C 142.451 21.219 140.993 20.922 139.833 20.561 C 138.672 20.2 137.743 19.632 137.047 18.857 C 136.351 18.083 136.003 17.05 136.003 15.76 C 136.003 14.469 136.351 13.333 137.047 12.352 C 137.769 11.345 138.775 10.571 140.065 10.029 C 141.354 9.487 142.837 9.216 144.514 9.216 C 147.222 9.242 149.402 9.822 151.052 10.958 C 152.729 12.094 153.632 13.669 153.761 15.682 L 148.576 15.682 C 148.499 14.934 148.099 14.327 147.377 13.862 C 146.681 13.372 145.778 13.127 144.669 13.127 C 143.637 13.127 142.799 13.32 142.154 13.707 C 141.535 14.095 141.225 14.611 141.225 15.256 C 141.225 15.721 141.393 16.069 141.728 16.302 C 142.064 16.534 142.502 16.702 143.044 16.805 C 143.585 16.908 144.488 17.024 145.752 17.154 C 148.434 17.463 150.485 18.044 151.904 18.896 C 153.348 19.722 154.07 21.155 154.07 23.194 C 154.07 24.485 153.683 25.62 152.909 26.601 C 152.161 27.582 151.104 28.344 149.737 28.886 C 148.396 29.402 146.835 29.66 145.056 29.66 C 142.296 29.66 140.052 29.054 138.324 27.84 C 136.596 26.601 135.68 24.924 135.577 22.807 Z" fill="currentColor"></path><path d="M 28.041 35.93 L 26.542 35.93 L 26.542 30.069 C 23.819 33.749 19.597 35.93 14.967 35.93 L 13.469 35.93 L 13.469 30.069 C 10.745 33.749 6.523 35.93 1.893 35.93 L 0.531 35.93 L 0.531 21.619 C 0.531 13.577 7.068 7.171 14.967 7.171 L 16.465 7.171 L 16.465 9.625 C 19.189 5.945 23.41 3.764 28.041 3.764 L 29.538 3.764 L 29.538 6.217 C 32.262 2.537 36.484 0.357 41.114 0.357 L 42.612 0.357 L 42.612 21.483 C 42.476 29.388 36.075 35.93 28.041 35.93 Z M 13.605 10.034 C 7.885 10.715 3.391 15.622 3.391 21.619 L 3.391 32.931 C 9.111 32.25 13.469 27.343 13.605 21.483 Z M 26.542 6.762 C 20.823 7.444 16.465 12.351 16.329 18.211 L 16.329 33.068 C 22.048 32.386 26.542 27.48 26.542 21.483 Z M 39.616 3.355 C 33.896 4.037 29.402 8.943 29.402 14.94 L 29.402 33.068 C 35.122 32.386 39.616 27.479 39.616 21.482 Z" fill="currentColor"></path></svg>