<svg viewBox="0 0 129.751 30.062" overflow="visible" id="svg-733103595_5993"><g><path d="M 71.864 7.552 C 73.673 7.552 75.145 8.152 76.278 9.352 C 77.411 10.552 77.978 12.548 77.978 15.34 L 77.978 24.6 L 73.368 24.6 L 73.368 15.176 C 73.368 12.624 72.398 11.348 70.458 11.348 C 69.456 11.348 68.649 11.708 68.039 12.428 C 67.429 13.126 67.123 14.107 67.123 15.373 L 67.123 24.6 L 62.514 24.6 L 62.514 15.176 C 62.514 12.624 61.533 11.348 59.571 11.348 C 58.568 11.348 57.762 11.719 57.152 12.46 C 56.563 13.18 56.269 14.162 56.269 15.405 L 56.269 24.6 L 51.659 24.6 L 51.659 12.324 L 49.025 12.324 L 49.025 8.063 L 55.68 7.748 L 56.105 9.843 C 56.672 9.123 57.348 8.567 58.132 8.174 C 58.917 7.781 59.898 7.574 61.075 7.552 C 63.473 7.552 65.14 8.501 66.077 10.399 C 66.688 9.483 67.483 8.785 68.464 8.305 C 69.467 7.803 70.6 7.552 71.864 7.552 Z" fill="currentColor"></path><path d="M 88.099 24.764 C 86.333 24.764 84.775 24.415 83.424 23.717 C 82.094 22.997 81.059 21.982 80.318 20.673 C 79.598 19.365 79.239 17.859 79.239 16.158 C 79.239 14.456 79.598 12.951 80.318 11.642 C 81.059 10.333 82.094 9.33 83.424 8.632 C 84.775 7.912 86.333 7.552 88.099 7.552 C 89.865 7.552 91.412 7.912 92.741 8.632 C 94.093 9.33 95.129 10.333 95.848 11.642 C 96.589 12.951 96.959 14.456 96.959 16.158 C 96.959 17.881 96.589 19.397 95.848 20.706 C 95.129 21.993 94.093 22.997 92.741 23.717 C 91.412 24.415 89.865 24.764 88.099 24.764 Z M 88.099 21.001 C 89.385 21.001 90.399 20.554 91.14 19.659 C 91.902 18.765 92.284 17.598 92.284 16.158 C 92.284 14.718 91.902 13.551 91.14 12.657 C 90.399 11.762 89.385 11.315 88.099 11.315 C 86.835 11.315 85.821 11.762 85.059 12.657 C 84.318 13.551 83.947 14.718 83.947 16.158 C 83.947 17.598 84.318 18.765 85.059 19.659 C 85.821 20.554 86.835 21.001 88.099 21.001 Z" fill="currentColor"></path><path d="M 102.148 18.972 C 102.214 19.714 102.573 20.314 103.227 20.772 C 103.881 21.23 104.72 21.459 105.744 21.459 C 106.725 21.459 107.499 21.306 108.066 21.001 C 108.633 20.673 108.916 20.215 108.916 19.626 C 108.916 19.19 108.785 18.863 108.524 18.645 C 108.262 18.427 107.892 18.274 107.412 18.187 C 106.932 18.078 106.147 17.958 105.058 17.827 C 103.576 17.63 102.344 17.379 101.363 17.074 C 100.382 16.769 99.598 16.289 99.009 15.634 C 98.421 14.98 98.127 14.107 98.127 13.017 C 98.127 11.926 98.421 10.966 99.009 10.137 C 99.619 9.286 100.469 8.632 101.56 8.174 C 102.65 7.716 103.903 7.487 105.319 7.487 C 107.608 7.509 109.45 7.999 110.844 8.959 C 112.261 9.919 113.025 11.25 113.134 12.951 L 108.752 12.951 C 108.687 12.319 108.349 11.806 107.739 11.413 C 107.15 10.999 106.387 10.792 105.45 10.792 C 104.578 10.792 103.87 10.955 103.325 11.282 C 102.802 11.61 102.541 12.046 102.541 12.591 C 102.541 12.984 102.682 13.278 102.965 13.475 C 103.249 13.671 103.619 13.813 104.077 13.9 C 104.535 13.987 105.297 14.086 106.365 14.195 C 108.633 14.456 110.365 14.947 111.564 15.667 C 112.785 16.365 113.395 17.576 113.395 19.299 C 113.395 20.39 113.068 21.35 112.414 22.179 C 111.782 23.008 110.888 23.651 109.733 24.109 C 108.6 24.546 107.281 24.764 105.777 24.764 C 103.445 24.764 101.549 24.251 100.088 23.226 C 98.628 22.179 97.854 20.761 97.767 18.972 Z" fill="currentColor"></path><path d="M 118.504 18.972 C 118.57 19.714 118.929 20.314 119.583 20.772 C 120.237 21.23 121.076 21.459 122.101 21.459 C 123.082 21.459 123.855 21.306 124.422 21.001 C 124.988 20.673 125.272 20.215 125.272 19.626 C 125.272 19.19 125.141 18.863 124.879 18.645 C 124.618 18.427 124.248 18.274 123.768 18.187 C 123.289 18.078 122.504 17.958 121.414 17.827 C 119.932 17.63 118.7 17.379 117.72 17.074 C 116.739 16.769 115.954 16.289 115.365 15.634 C 114.777 14.98 114.483 14.107 114.483 13.017 C 114.483 11.926 114.777 10.966 115.365 10.137 C 115.976 9.286 116.826 8.632 117.916 8.174 C 119.005 7.716 120.258 7.487 121.676 7.487 C 123.964 7.509 125.806 7.999 127.201 8.959 C 128.618 9.919 129.381 11.25 129.49 12.951 L 125.108 12.951 C 125.043 12.319 124.705 11.806 124.095 11.413 C 123.507 10.999 122.744 10.792 121.807 10.792 C 120.934 10.792 120.226 10.955 119.681 11.282 C 119.158 11.61 118.896 12.046 118.896 12.591 C 118.896 12.984 119.038 13.278 119.321 13.475 C 119.605 13.671 119.975 13.813 120.433 13.9 C 120.89 13.987 121.654 14.086 122.722 14.195 C 124.988 14.456 126.721 14.947 127.921 15.667 C 129.141 16.365 129.751 17.576 129.751 19.299 C 129.751 20.39 129.424 21.35 128.77 22.179 C 128.138 23.008 127.245 23.651 126.089 24.109 C 124.956 24.546 123.637 24.764 122.134 24.764 C 119.801 24.764 117.905 24.251 116.445 23.226 C 114.984 22.179 114.21 20.761 114.123 18.972 Z" fill="currentColor"></path><path d="M 23.247 30.062 L 21.981 30.062 L 21.981 25.109 C 19.68 28.219 16.112 30.062 12.199 30.062 L 10.933 30.062 L 10.933 25.109 C 8.631 28.219 5.064 30.062 1.151 30.062 L 0 30.062 L 0 17.968 C 0 11.172 5.524 5.759 12.199 5.759 L 13.465 5.759 L 13.465 7.832 C 15.767 4.722 19.334 2.88 23.247 2.88 L 24.513 2.88 L 24.513 4.953 C 26.815 1.843 30.383 0 34.295 0 L 35.561 0 L 35.561 17.853 C 35.446 24.533 30.037 30.062 23.247 30.062 Z M 11.048 8.178 C 6.215 8.754 2.417 12.9 2.417 17.968 L 2.417 27.528 C 7.25 26.952 10.933 22.806 11.048 17.853 Z M 21.981 5.413 C 17.148 5.989 13.465 10.136 13.35 15.089 L 13.35 27.643 C 18.184 27.067 21.981 22.921 21.981 17.853 Z M 33.029 2.534 C 28.196 3.11 24.398 7.256 24.398 12.324 L 24.398 27.643 C 29.232 27.067 33.029 22.921 33.029 17.853 Z" fill="currentColor"></path></g></svg>