<svg viewBox="0 0 158.402 20" overflow="visible" id="svg562709543_1929"><g><path d="M 158.288 12.251 C 157.733 8.574 153.332 8.358 150.42 8.21 C 150.42 8.21 138.401 7.885 137.133 7.829 C 136.017 7.781 134.721 7.565 134.593 6.32 C 134.461 5.016 135.636 4.412 136.701 4.185 C 138.837 3.734 140.97 3.695 143.087 3.695 C 147.739 3.695 152.02 4.206 156.54 5.032 L 157.034 1.406 L 157.034 1.38 C 153.628 0.751 148.912 0.001 143.883 0.001 C 141.681 -0.009 139.481 0.124 137.296 0.399 C 134.918 0.712 132.312 1.258 131.033 2.933 C 129.948 4.356 129.837 6.759 130.494 8.398 C 131.625 11.218 135.629 11.327 138.125 11.439 C 138.125 11.439 150.216 11.79 151.497 11.841 C 152.612 11.891 153.91 12.114 154.037 13.396 C 154.151 14.543 153.387 15.373 151.809 15.701 C 149.747 16.132 147.57 16.189 145.455 16.189 C 140.314 16.189 135.775 15.652 130.555 14.842 L 130.128 18.505 C 134.916 19.469 139.786 19.969 144.67 20 L 144.742 20 C 146.957 20 149.193 20 151.393 19.684 C 153.325 19.404 155.365 18.981 156.892 17.651 C 158.418 16.321 158.566 14.088 158.288 12.251 Z M 17.125 15.076 L 5.105 0.136 L 0 0.136 L 0 19.874 L 4.515 19.874 L 4.515 6.19 L 14.529 18.626 C 15.934 20.383 18.32 20.383 19.739 18.626 L 29.745 6.19 L 29.745 19.874 L 34.258 19.874 L 34.258 0.136 L 29.145 0.136 Z M 72.022 0.136 L 45.767 0.136 L 45.767 19.874 L 72.242 19.874 L 72.906 15.882 L 50.282 15.882 L 50.282 12.001 L 71.126 12.001 L 71.126 8.008 L 50.282 8.008 L 50.282 4.127 L 72.022 4.127 Z M 115.598 19.868 L 123.823 0.136 L 119.162 0.136 L 112.859 15.244 L 105.431 1.933 C 104.763 0.772 103.526 0.057 102.186 0.057 C 100.847 0.057 99.61 0.772 98.942 1.933 L 91.512 15.239 L 85.205 0.136 L 80.55 0.136 L 88.784 19.868 L 93.575 19.868 L 102.183 4.299 L 110.791 19.868 Z" fill="currentColor"></path></g></svg>