<svg viewBox="0 0 128.01 28.001" overflow="visible" id="svg130146361_4707"><g><path d="M 0 28 L 0 0 L 128 0 L 128 28 Z" fill="transparent"></path><path d="M 20.99 21.593 L 21.261 21.593 L 21.261 28.001 L 20.176 28.001 C 13.234 28.001 9.274 24.124 9.274 17.77 L 9.274 14.485 L 11.498 13.947 C 12.854 13.624 13.885 12.547 14.156 11.201 C 14.427 9.855 13.939 8.454 12.854 7.647 C 10.468 5.816 7.051 7.485 6.996 10.447 L 6.996 24.447 L 0 24.447 L 0 10.232 C 0 9.801 0.054 9.37 0.054 8.939 C 0.813 3.77 5.369 -0.053 10.63 0.001 C 15.403 -0.053 19.579 3.07 20.935 7.593 C 21.586 9.855 21.369 12.331 20.339 14.485 C 19.471 16.316 18.115 17.824 16.379 18.901 C 16.976 21.216 18.169 21.647 20.935 21.647 M 39.105 8.024 L 39.105 11.954 L 38.454 11.954 C 37.098 11.954 36.013 12.331 35.254 13.085 C 34.44 13.893 34.061 14.97 34.115 16.101 L 34.115 23.154 L 30.318 23.154 L 30.318 8.293 L 34.115 8.293 L 34.115 10.231 C 35.146 8.885 36.718 8.078 38.454 8.078 L 39.105 8.078 Z M 55.539 17.07 L 43.932 17.07 C 44.149 17.985 44.691 18.739 45.451 19.332 C 46.21 19.87 47.132 20.139 48.217 20.139 C 49.03 20.139 49.844 19.978 50.603 19.601 C 51.254 19.278 51.851 18.847 52.339 18.308 L 54.888 20.516 C 54.074 21.485 53.098 22.239 51.959 22.724 C 50.766 23.262 49.464 23.532 48.108 23.478 C 46.644 23.478 45.179 23.155 43.823 22.455 C 41.274 21.108 39.701 18.524 39.756 15.67 C 39.756 14.27 40.081 12.924 40.786 11.685 C 41.491 10.501 42.468 9.532 43.661 8.885 C 44.908 8.185 46.318 7.862 47.729 7.862 C 49.844 7.808 51.905 8.616 53.369 10.07 C 54.888 11.524 55.647 13.57 55.593 15.67 C 55.647 16.208 55.593 16.639 55.539 17.07 Z M 50.115 12.062 C 48.705 10.931 46.698 10.931 45.288 12.062 C 44.583 12.654 44.095 13.408 43.878 14.27 L 51.525 14.27 C 51.362 13.408 50.874 12.654 50.115 12.062 Z M 80.162 9.424 C 81.193 10.501 81.735 11.955 81.681 13.462 L 81.681 23.155 L 77.83 23.155 L 77.83 14.593 C 77.83 13.678 77.559 12.924 77.017 12.385 C 76.474 11.847 75.661 11.524 74.901 11.578 C 73.979 11.578 73.22 11.847 72.623 12.439 C 72.027 13.032 71.701 13.839 71.756 14.647 L 71.756 23.155 L 67.959 23.155 L 67.959 14.593 C 67.959 13.678 67.688 12.978 67.146 12.385 C 66.549 11.847 65.79 11.524 64.976 11.578 C 64.162 11.524 63.295 11.847 62.698 12.439 C 62.101 13.032 61.776 13.839 61.83 14.647 L 61.83 23.155 L 58.034 23.155 L 58.034 8.293 L 61.83 8.293 L 61.83 9.855 C 62.969 8.616 64.596 7.916 66.278 7.97 C 67.254 7.97 68.176 8.185 69.044 8.616 C 69.857 9.047 70.508 9.639 70.996 10.393 C 72.19 8.778 74.088 7.916 76.095 7.97 C 77.776 7.916 79.132 8.401 80.162 9.424 Z M 99.959 15.724 C 100.013 17.824 99.2 19.816 97.681 21.27 C 96.162 22.778 94.047 23.585 91.932 23.478 C 89.654 23.478 87.756 22.724 86.183 21.27 C 84.664 19.816 83.796 17.824 83.851 15.724 C 83.851 13.516 84.61 11.631 86.183 10.178 C 87.701 8.67 89.762 7.862 91.932 7.97 C 94.21 7.97 96.108 8.724 97.681 10.178 C 99.2 11.578 100.013 13.624 99.959 15.724 Z M 94.861 18.631 C 95.62 17.824 96.054 16.801 96 15.67 C 96 14.485 95.62 13.516 94.861 12.708 C 94.101 11.901 93.017 11.524 91.932 11.524 C 90.847 11.47 89.762 11.901 89.003 12.708 C 87.43 14.378 87.43 16.908 89.003 18.578 C 89.762 19.385 90.847 19.816 91.932 19.762 C 93.125 19.816 94.101 19.439 94.861 18.631 Z M 106.956 11.739 L 106.956 17.932 C 106.956 19.224 107.661 19.816 109.017 19.816 C 109.722 19.816 110.373 19.601 110.969 19.332 L 110.969 22.885 C 110.101 23.316 109.125 23.532 108.149 23.532 C 106.468 23.532 105.22 23.101 104.352 22.185 C 103.485 21.162 102.996 19.87 103.105 18.524 L 103.105 11.739 L 100.718 11.739 L 100.718 8.293 L 103.105 8.293 L 103.105 5.816 L 106.901 4.524 L 106.901 8.293 L 110.969 8.293 L 110.969 11.739 Z M 127.946 17.07 L 116.339 17.07 C 116.556 17.985 117.098 18.739 117.857 19.331 C 118.617 19.87 119.539 20.139 120.623 20.139 C 121.437 20.139 122.251 19.978 123.01 19.601 C 123.661 19.278 124.257 18.847 124.746 18.308 L 127.295 20.516 C 126.481 21.485 125.505 22.185 124.366 22.724 C 123.173 23.262 121.871 23.531 120.515 23.478 C 119.051 23.478 117.586 23.154 116.23 22.454 C 113.681 21.162 112.108 18.524 112.162 15.67 C 112.162 14.27 112.542 12.924 113.193 11.685 C 113.898 10.501 114.874 9.531 116.068 8.885 C 117.315 8.185 118.725 7.862 120.135 7.862 C 122.359 7.862 124.257 8.616 125.776 10.07 C 127.295 11.524 128.108 13.57 128 15.67 C 128 16.208 127.946 16.639 127.946 17.07 Z M 122.522 12.062 C 121.112 10.931 119.105 10.931 117.64 12.062 C 116.935 12.654 116.447 13.408 116.23 14.27 L 123.878 14.27 C 123.715 13.408 123.227 12.654 122.522 12.062 Z" fill="currentColor"></path></g></svg>