<svg viewBox="0 0 109 44" id="svg9610086832"><path d="M 56.92 15.662 C 56.029 14.914 54.496 14.539 52.321 14.539 L 47.436 14.539 L 47.436 29.639 L 51.091 29.639 L 51.091 24.897 L 52.731 24.897 C 54.71 24.897 56.172 24.451 57.099 23.578 C 58.151 22.597 58.667 21.296 58.667 19.656 C 58.667 17.98 58.079 16.643 56.92 15.662 Z M 52.624 21.474 L 51.073 21.474 L 51.073 17.944 L 52.464 17.944 C 54.157 17.944 54.995 18.533 54.995 19.727 C 55.013 20.886 54.211 21.474 52.624 21.474 Z M 64.907 14.521 L 61.11 14.521 L 61.11 29.622 L 69.329 29.622 L 69.329 26.199 L 64.907 26.199 Z M 76.798 14.521 L 70.808 29.622 L 74.909 29.622 L 75.693 27.429 L 80.899 27.429 L 81.612 29.622 L 85.766 29.622 L 79.829 14.521 Z M 76.745 24.38 L 78.314 19.21 L 79.865 24.38 Z" fill="currentColor"></path><path d="M 87.673 29.622 L 91.489 29.622 L 91.489 14.522 L 87.673 14.522 Z M 106.268 17.356 C 105.786 16.661 105.162 16.073 104.449 15.609 C 103.291 14.878 101.722 14.522 99.743 14.522 L 94.715 14.522 L 94.715 29.622 L 100.581 29.622 C 102.702 29.622 104.414 28.927 105.697 27.536 C 106.981 26.146 107.623 24.309 107.623 22.01 C 107.641 20.191 107.177 18.64 106.268 17.356 Z M 100.171 26.199 L 98.548 26.199 L 98.548 17.945 L 100.206 17.945 C 101.365 17.945 102.274 18.301 102.898 19.032 C 103.522 19.763 103.843 20.797 103.843 22.134 C 103.825 24.844 102.613 26.199 100.171 26.199 Z M 16.487 1.846 L 4.133 5.073 L 0.728 17.499 L 5.006 21.867 L 0.674 26.163 L 3.883 38.643 L 16.184 42.084 L 20.516 37.787 L 24.777 42.155 L 37.132 38.928 L 40.537 26.502 L 36.276 22.134 L 40.608 17.838 L 37.399 5.358 L 25.098 1.918 L 20.766 6.214 Z M 8.911 7.462 L 15.418 5.751 L 18.27 8.674 L 14.116 12.792 Z M 23.191 8.728 L 26.079 5.858 L 32.55 7.676 L 27.255 12.935 C 27.273 12.917 23.191 8.728 23.191 8.728 Z M 4.632 16.483 L 6.433 9.94 L 11.638 15.271 L 7.484 19.389 Z M 29.715 15.431 L 35.01 10.172 L 36.704 16.75 L 33.816 19.621 C 33.798 19.621 29.715 15.431 29.715 15.431 Z M 16.559 15.324 L 20.713 11.206 L 24.795 15.395 L 20.641 19.514 Z M 9.927 21.903 L 14.081 17.784 L 18.163 21.974 L 14.009 26.092 Z M 23.084 22.01 L 27.238 17.891 L 31.32 22.081 L 27.166 26.199 C 27.166 26.217 23.084 22.01 23.084 22.01 Z M 4.561 27.251 L 7.449 24.381 L 11.531 28.57 L 6.254 33.829 C 6.236 33.829 4.561 27.251 4.561 27.251 Z M 16.452 28.606 L 20.606 24.487 L 24.688 28.677 L 20.534 32.795 Z M 29.609 28.713 L 33.762 24.594 L 36.615 27.518 L 34.832 34.061 C 34.814 34.061 29.609 28.713 29.609 28.713 Z M 8.679 36.325 L 13.956 31.066 L 18.038 35.256 L 15.15 38.126 Z M 22.977 35.309 L 27.13 31.191 L 32.336 36.521 L 25.829 38.233 Z" fill="currentColor"></path></svg>