<svg viewBox="0 0 21.397 23.333" overflow="visible" id="svg-2083458315_833"><g><path d="M 21.397 6.601 L 21.397 6.601 M 20.498 5.066 L 21.397 6.601 L 13.749 11.458 C 13.587 11.551 13.587 11.782 13.749 11.874 L 21.397 16.732 L 20.498 18.268 L 12.495 14.11 C 12.333 14.017 12.13 14.133 12.13 14.318 L 11.598 23.333 L 9.799 23.333 L 9.521 16.357 C 9.521 16.332 9.521 16.307 9.521 16.28 C 9.521 14.922 10.812 13.505 11.135 13.151 L 8.876 14.318 L 8.877 14.326 L 0.899 18.268 L 0 16.732 L 7.707 12.108 C 7.869 12.016 7.869 11.785 7.707 11.692 L 0 6.601 L 0.899 5.066 L 8.902 9.223 C 9.064 9.316 9.267 9.2 9.267 9.016 L 9.8 0 L 11.598 0 L 12.19 9.074 C 12.19 9.259 12.392 9.374 12.555 9.282 Z" fill="currentColor"></path></g></svg>