<svg viewBox="0 0 162.378 32.017" overflow="visible" id="svg-252286715_9373"><g><path d="M 53.802 9.25 L 61.952 25.516 L 58.646 32.016 L 47.208 9.25 Z" fill="currentColor"></path><path d="M 70.162 11.56 C 70.162 13.089 68.922 14.329 67.394 14.329 C 65.865 14.329 64.625 13.089 64.625 11.56 C 64.625 10.032 65.865 8.792 67.394 8.792 C 68.922 8.792 70.162 10.032 70.162 11.56 Z" fill="currentColor"></path><path d="M 40.55 23.052 C 39.655 24.88 37.776 26.139 35.603 26.139 C 32.562 26.139 30.098 23.675 30.098 20.634 C 30.098 17.594 32.562 15.129 35.603 15.129 C 37.799 15.129 39.696 16.416 40.579 18.276 L 45.832 15.634 C 43.981 11.854 40.097 9.25 35.603 9.25 C 29.316 9.25 24.22 14.346 24.22 20.633 C 24.22 26.92 29.316 32.017 35.603 32.017 C 40.065 32.017 43.926 29.449 45.793 25.712 L 40.55 23.051 Z M 16.33 23.052 C 15.435 24.88 13.556 26.14 11.383 26.14 C 8.343 26.14 5.878 23.675 5.878 20.634 C 5.878 17.594 8.343 15.129 11.383 15.129 C 13.581 15.129 15.476 16.416 16.359 18.276 L 21.612 15.634 C 19.761 11.854 15.877 9.25 11.383 9.25 C 5.096 9.252 0 14.348 0 20.634 C 0 26.92 5.096 32.017 11.383 32.017 C 15.845 32.017 19.706 29.45 21.573 25.713 L 16.331 23.052 Z" fill="currentColor"></path><path d="M 159.742 9.084 C 159.742 9.136 159.705 9.159 159.656 9.159 L 159.518 9.159 L 159.518 9.008 L 159.656 9.008 C 159.705 9.008 159.742 9.035 159.742 9.084 Z M 159.831 9.081 C 159.831 8.972 159.753 8.923 159.659 8.923 L 159.428 8.923 L 159.428 9.45 L 159.518 9.45 L 159.518 9.247 L 159.618 9.247 L 159.722 9.45 L 159.828 9.45 L 159.722 9.237 C 159.788 9.216 159.831 9.165 159.831 9.081 Z M 160.096 9.195 C 160.096 8.92 159.884 8.713 159.613 8.713 C 159.341 8.713 159.129 8.919 159.129 9.195 C 159.129 9.472 159.338 9.678 159.613 9.678 C 159.888 9.678 160.096 9.47 160.096 9.195 Z M 160.017 9.195 C 160.017 9.424 159.841 9.6 159.613 9.6 C 159.385 9.6 159.207 9.424 159.207 9.195 C 159.207 8.967 159.382 8.791 159.613 8.791 C 159.843 8.791 160.017 8.965 160.017 9.195 Z M 162.378 27.65 L 158.312 27.65 L 158.312 31.718 L 162.378 31.718 Z M 150.059 9.536 L 152.482 27.718 L 154.901 9.536 L 158.675 9.536 L 155.145 31.717 L 149.778 31.717 L 146.284 9.536 Z M 100.76 9.536 L 98.667 9.536 L 98.667 12.484 L 100.76 12.484 L 100.76 31.717 L 104.438 31.717 L 104.438 12.484 L 107.023 12.484 L 107.023 9.536 L 104.438 9.536 L 104.438 5.027 C 104.438 4.37 104.575 3.866 104.893 3.522 C 105.212 3.18 105.698 3.018 106.36 3.018 L 107.022 3.018 L 107.022 0 L 105.691 0 C 104.056 0 102.481 0.346 101.733 1.058 C 100.983 1.77 100.76 2.875 100.76 4.447 Z M 111.858 9.536 L 108.172 9.536 L 108.172 31.716 L 111.858 31.716 Z M 128.886 14.311 C 128.886 13.059 129.211 11.763 130.936 11.763 C 132.661 11.763 133.008 13.04 133.008 14.309 L 133.008 18.893 L 128.886 18.893 Z M 128.886 21.882 L 136.572 21.882 L 136.572 15.047 C 136.563 10.957 134.597 9.281 130.873 9.281 C 127.148 9.281 125.183 10.953 125.183 15.074 L 125.183 26.307 C 125.196 30.055 127.464 31.994 130.871 31.994 C 134.278 31.994 136.563 30.398 136.572 26.307 L 136.572 24.53 L 133.011 24.53 L 133.016 26.635 C 133.016 28.137 132.453 29.174 130.946 29.174 C 129.438 29.174 128.886 28.127 128.886 26.633 L 128.886 21.881 Z M 120.151 19.106 C 117.354 16.677 117.136 16.325 117.136 14.515 C 117.136 12.973 117.27 12.036 118.656 12.036 C 120.042 12.036 120.22 12.962 120.22 14.534 L 120.22 16.582 L 123.774 16.582 L 123.774 13.24 C 123.762 10.617 121.744 9.283 118.573 9.283 C 115.402 9.283 113.422 10.322 113.404 14.516 C 113.402 15.23 113.406 15.23 113.404 14.954 C 113.41 16.273 113.417 18.363 116.675 21.159 L 117.61 21.959 C 120.012 23.985 120.274 24.23 120.264 26.639 C 120.262 28.124 120.172 29.25 118.612 29.25 C 117.054 29.25 116.957 28.116 116.957 27.415 L 116.957 24.577 L 113.226 24.577 L 113.226 27.505 C 113.226 31.109 115.571 32 118.608 32 C 121.645 32 123.997 31.1 123.997 26.464 L 123.997 26.079 C 123.989 22.839 123.403 21.971 120.152 19.108 M 141.509 11.819 L 141.509 9.535 L 138.148 9.535 L 138.148 31.715 L 141.774 31.715 L 141.774 16.258 C 141.773 15.063 142.163 14.277 142.84 13.813 C 143.481 13.371 144.27 13.221 145.276 13.206 L 145.276 9.281 C 143.353 9.321 142.523 9.701 141.546 11.738 L 141.509 11.82 Z" fill="currentColor"></path><path d="M 86.402 27.616 L 86.382 26.964 L 87.306 26.964 L 87.306 27.674 C 87.422 27.48 87.549 27.327 87.685 27.217 C 87.822 27.107 87.957 27.026 88.093 26.974 C 88.237 26.916 88.372 26.88 88.502 26.867 C 88.632 26.848 88.748 26.838 88.852 26.838 C 89.124 26.838 89.351 26.87 89.532 26.935 C 89.714 26.993 89.867 27.068 89.99 27.159 C 90.112 27.25 90.207 27.35 90.272 27.46 C 90.343 27.564 90.402 27.661 90.447 27.752 C 90.486 27.687 90.544 27.603 90.622 27.499 C 90.699 27.395 90.8 27.295 90.923 27.198 C 91.052 27.1 91.212 27.016 91.4 26.945 C 91.587 26.874 91.817 26.838 92.09 26.838 C 92.265 26.838 92.457 26.861 92.663 26.906 C 92.871 26.951 93.066 27.039 93.247 27.168 C 93.428 27.292 93.577 27.467 93.694 27.694 C 93.817 27.92 93.879 28.212 93.879 28.569 L 93.879 31.846 L 92.956 31.846 L 92.956 28.715 C 92.956 28.501 92.939 28.342 92.907 28.238 C 92.874 28.128 92.836 28.04 92.79 27.976 C 92.712 27.865 92.596 27.768 92.44 27.684 C 92.284 27.593 92.09 27.548 91.857 27.548 C 91.707 27.548 91.575 27.567 91.458 27.606 C 91.354 27.642 91.253 27.688 91.157 27.742 C 91.072 27.794 91.001 27.849 90.942 27.908 C 90.891 27.966 90.848 28.018 90.816 28.063 C 90.764 28.141 90.722 28.228 90.69 28.326 C 90.664 28.425 90.644 28.525 90.632 28.627 C 90.619 28.721 90.609 28.815 90.602 28.909 L 90.602 31.846 L 89.678 31.846 L 89.678 28.617 C 89.678 28.313 89.591 28.06 89.416 27.859 C 89.241 27.651 88.972 27.548 88.609 27.548 C 88.453 27.548 88.314 27.57 88.191 27.616 C 88.074 27.655 87.971 27.703 87.88 27.762 C 87.796 27.82 87.724 27.878 87.666 27.937 C 87.607 27.995 87.565 28.044 87.539 28.083 C 87.436 28.225 87.374 28.387 87.355 28.569 C 87.336 28.737 87.326 28.905 87.326 29.074 L 87.326 31.846 L 86.402 31.846 Z M 81.06 29.405 C 81.06 29.658 81.086 29.901 81.138 30.134 C 81.197 30.361 81.284 30.565 81.401 30.747 C 81.523 30.922 81.676 31.065 81.858 31.175 C 82.046 31.279 82.269 31.33 82.528 31.33 C 82.703 31.33 82.878 31.298 83.053 31.233 C 83.228 31.162 83.384 31.052 83.52 30.903 C 83.663 30.747 83.779 30.546 83.87 30.3 C 83.961 30.047 84.007 29.736 84.007 29.366 C 84.007 28.757 83.877 28.297 83.618 27.985 C 83.358 27.668 83.015 27.509 82.587 27.509 C 82.438 27.509 82.276 27.538 82.101 27.596 C 81.926 27.648 81.76 27.746 81.605 27.888 C 81.449 28.024 81.319 28.216 81.216 28.462 C 81.112 28.708 81.06 29.023 81.06 29.405 Z M 80.108 29.463 C 80.108 29.165 80.146 28.86 80.224 28.549 C 80.299 28.244 80.435 27.956 80.623 27.703 C 80.817 27.45 81.073 27.243 81.391 27.081 C 81.708 26.919 82.107 26.838 82.587 26.838 C 83.073 26.838 83.472 26.925 83.783 27.1 C 84.094 27.269 84.337 27.483 84.512 27.742 C 84.693 27.995 84.817 28.271 84.882 28.569 C 84.947 28.867 84.978 29.142 84.978 29.395 C 84.978 29.752 84.927 30.089 84.823 30.407 C 84.726 30.724 84.573 31.003 84.366 31.243 C 84.165 31.476 83.909 31.664 83.598 31.807 C 83.287 31.943 82.924 32.011 82.509 32.011 C 82.107 32.011 81.754 31.946 81.449 31.817 C 81.151 31.68 80.902 31.499 80.7 31.272 C 80.499 31.045 80.35 30.776 80.253 30.465 C 80.156 30.154 80.108 29.82 80.108 29.463 Z M 76.737 27.956 C 76.737 27.788 76.73 27.622 76.717 27.46 C 76.711 27.292 76.701 27.126 76.688 26.964 L 77.612 26.964 L 77.631 27.908 C 77.677 27.739 77.741 27.596 77.826 27.48 C 77.916 27.363 78.017 27.269 78.127 27.198 C 78.237 27.12 78.351 27.062 78.467 27.023 C 78.584 26.984 78.694 26.958 78.797 26.945 C 78.934 26.925 79.054 26.916 79.158 26.916 C 79.262 26.916 79.352 26.919 79.43 26.925 L 79.43 27.82 C 79.391 27.807 79.332 27.794 79.255 27.781 C 79.217 27.774 79.177 27.771 79.138 27.771 L 78.993 27.771 C 78.72 27.771 78.497 27.81 78.322 27.888 C 78.152 27.959 78.02 28.063 77.922 28.199 C 77.826 28.329 77.757 28.484 77.718 28.666 C 77.68 28.848 77.66 29.042 77.66 29.249 L 77.66 31.846 L 76.737 31.846 Z M 75.89 25.506 C 75.813 25.499 75.725 25.496 75.628 25.496 C 75.537 25.489 75.446 25.486 75.356 25.486 C 75.168 25.486 75.025 25.509 74.928 25.554 C 74.831 25.593 74.756 25.648 74.704 25.72 C 74.658 25.784 74.632 25.859 74.627 25.943 C 74.62 26.027 74.617 26.112 74.617 26.196 L 74.617 26.964 L 75.754 26.964 L 75.754 27.626 L 74.617 27.626 L 74.617 31.846 L 73.713 31.846 L 73.713 27.626 L 72.75 27.626 L 72.75 26.964 L 73.713 26.964 L 73.713 26.41 C 73.713 26.241 73.716 26.099 73.722 25.982 C 73.728 25.859 73.738 25.755 73.751 25.671 C 73.764 25.58 73.783 25.502 73.809 25.438 C 73.842 25.373 73.878 25.308 73.917 25.243 C 74.02 25.088 74.169 24.961 74.364 24.864 C 74.565 24.76 74.824 24.708 75.142 24.708 C 75.272 24.708 75.404 24.718 75.54 24.737 C 75.677 24.75 75.793 24.763 75.89 24.776 Z" fill="currentColor"></path></g></svg>